<svg width="749" height="789" viewBox="0 0 749 789" fill="none" xmlns="http://www.w3.org/2000/svg">
<path d="M359.496 326.47H397.788V559.241H363.863V336.883L298.365 558.905C297.917 561.368 296.685 562.6 294.67 562.6C292.878 562.6 291.535 561.144 290.639 558.233L225.141 338.226L225.141 523.372C225.141 548.676 219.655 567.933 208.682 581.145C197.934 594.133 185.282 600.627 170.727 600.627C156.172 600.627 143.856 596.372 133.779 587.863C123.926 579.354 119 568.941 119 556.625C119 544.085 122.023 535.352 128.069 530.426C133.891 525.276 139.041 522.7 143.52 522.7C148.222 522.7 152.253 523.708 155.612 525.723C158.971 527.739 160.65 529.978 160.65 532.441C160.65 534.904 160.09 536.136 158.971 536.136C157.851 536.136 156.955 535.8 156.284 535.128C155.836 534.457 155.388 533.673 154.94 532.777C153.373 530.538 149.678 529.418 143.856 529.418C138.258 529.418 133.779 531.881 130.42 536.808C127.061 541.51 125.382 547.556 125.382 554.946C125.382 567.038 129.748 576.667 138.482 583.832C147.439 590.774 157.963 594.245 170.055 594.245C182.147 594.245 193.231 588.647 203.308 577.45C213.385 566.254 218.423 551.139 218.423 532.105L218.423 332.516H191.888C181.363 332.516 173.526 334.867 168.375 339.57C163.225 344.048 160.65 349.422 160.65 355.692C160.65 361.738 162.217 366.777 165.352 370.807C168.487 374.838 172.63 376.853 177.78 376.853C183.155 376.853 187.073 375.622 189.536 373.159C192 370.695 193.903 368.344 195.247 366.105C196.59 363.642 197.934 362.41 199.277 362.41C200.621 362.41 201.293 364.09 201.293 367.449C201.293 370.807 198.717 374.39 193.567 378.197C188.641 381.78 182.819 383.571 176.101 383.571C169.383 383.571 164.009 380.996 159.978 375.846C155.947 370.695 153.932 364.314 153.932 356.7C153.932 348.863 157.179 341.809 163.673 335.539C170.391 329.045 179.908 325.798 192.224 325.798H233.033C247.468 325.798 260.174 335.317 264.231 349.169L308.441 500.125L359.496 326.47Z" fill="#CB2851"/>
<path d="M481.749 455.293C486.228 454.845 489.587 454.621 491.826 454.621L481.749 455.293Z" fill="#CB2851"/>
<path d="M397.788 559.241H363.863L355.308 565.565H406.342L397.788 559.241Z" fill="#CB2851"/>
<path d="M481.749 455.293C486.228 454.845 489.587 454.621 491.826 454.621L481.749 455.293Z" fill="#CB2851"/>
<path d="M466.744 559.577H432.82L424.265 565.901H475.299L466.744 559.577Z" fill="#CB2851"/>
<path d="M545.317 589.135C552.931 597.197 562.896 601.227 575.211 601.227C593.126 601.227 605.441 594.621 612.159 581.41C612.831 580.066 613.167 578.947 613.167 578.051C613.167 576.931 612.719 576.371 611.823 576.371C610.928 576.371 609.36 577.827 607.121 580.738C604.882 583.649 601.747 586.56 597.716 589.471C593.685 592.158 589.319 593.502 584.616 593.502C573.42 593.502 565.918 582.865 562.112 561.592C560.544 552.411 549.599 527.173 546.912 516.425C544.225 505.676 541.202 495.824 537.843 486.867C534.484 477.686 528.774 470.072 520.712 464.026C512.875 457.756 503.246 454.621 491.826 454.621L481.749 455.293L555.419 369.464C564.6 358.715 573.557 350.43 582.29 344.608C591.023 338.786 597.741 335.427 602.444 334.531C607.146 333.412 612.408 332.852 618.23 332.852C620.917 332.852 622.261 331.508 622.261 328.821C622.261 326.806 620.134 325.798 615.879 325.798C594.382 325.798 572.661 338.674 550.717 364.426L466.744 462.505V325.798H433.155L432.82 559.577H466.744V473.253V473.253C472.924 465.657 483.428 461.272 490.67 467.864C498.994 475.441 505.537 489.053 510.3 508.699C513.211 520.568 525.164 547.709 528.523 559.577C532.106 571.221 537.704 581.074 545.317 589.135Z" fill="#CB2851"/>
<path d="M466.744 325.798L432.82 325.797L424.265 321H475.299L466.744 325.798Z" fill="#CB2851"/>
<path d="M397.452 326.47H359.496V326.47C362.278 323.414 366.218 321.672 370.351 321.672H406.006L397.452 326.47Z" fill="#CB2851"/>
<circle cx="371.3" cy="440.243" r="332.294" transform="rotate(44.2915 371.3 440.243)" stroke="#FAD180" stroke-width="5.43439"/>
<circle cx="390.513" cy="440.004" r="332.973" transform="rotate(44.2915 390.513 440.004)" stroke="#FAD180" stroke-width="4.07579"/>
<circle cx="352.089" cy="440.481" r="332.973" transform="rotate(44.2915 352.089 440.481)" stroke="#FAD180" stroke-width="4.07579"/>
<path d="M184.993 118.302C187.271 118.096 190.6 117.848 194.765 117.685C203.102 117.359 214.762 117.377 228.031 118.748C254.647 121.499 287.322 129.657 312.755 150.998C338.187 172.338 351.895 203.1 359.226 228.834C362.881 241.663 364.923 253.143 366.05 261.41C366.613 265.54 366.947 268.862 367.139 271.141C367.141 271.162 367.142 271.183 367.144 271.204C367.123 271.206 367.102 271.208 367.081 271.21C364.803 271.416 361.474 271.665 357.308 271.828C348.972 272.153 337.312 272.135 324.043 270.764C297.842 268.056 265.771 260.108 240.516 239.505L239.319 238.514C213.887 217.174 200.179 186.412 192.848 160.678C189.193 147.849 187.151 136.369 186.024 128.103C185.461 123.972 185.127 120.65 184.935 118.371C184.933 118.35 184.931 118.329 184.929 118.308C184.95 118.306 184.972 118.304 184.993 118.302Z" fill="#FFDDCC" stroke="#FFEECC" stroke-width="7.27852"/>
<path d="M263.11 42.984C265.377 43.8016 268.668 45.0475 272.717 46.7469C280.822 50.1474 291.946 55.3546 304.003 62.571C328.187 77.0453 355.766 99.3888 370.559 131.111C385.351 162.834 384.74 198.324 380.283 226.153C378.061 240.028 374.899 251.897 372.295 260.291C370.993 264.486 369.832 267.806 369.001 270.069C368.971 270.15 368.94 270.23 368.911 270.308C368.833 270.28 368.752 270.253 368.67 270.223C366.403 269.406 363.113 268.161 359.063 266.461C350.959 263.061 339.835 257.854 327.777 250.637C303.971 236.389 276.874 214.515 261.924 183.577L261.221 182.096C246.429 150.374 247.041 114.884 251.498 87.0548C253.72 73.1798 256.881 61.3108 259.486 52.9169C260.787 48.7222 261.948 45.4008 262.779 43.1383C262.809 43.0568 262.839 42.9771 262.868 42.8983C262.947 42.9266 263.028 42.9545 263.11 42.984Z" fill="#FFCCCC" stroke="#FFEECC" stroke-width="7.27852"/>
<path d="M557.068 118.302C554.79 118.096 551.461 117.848 547.295 117.685C538.959 117.359 527.298 117.377 514.03 118.748C487.413 121.499 454.738 129.657 429.306 150.998C403.873 172.338 390.165 203.1 382.834 228.834C379.18 241.663 377.138 253.143 376.011 261.41C375.448 265.54 375.114 268.862 374.921 271.141C374.919 271.162 374.919 271.183 374.917 271.204C374.938 271.206 374.959 271.208 374.98 271.21C377.257 271.416 380.587 271.665 384.753 271.828C393.089 272.153 404.749 272.135 418.017 270.764C444.218 268.056 476.289 260.108 501.544 239.505L502.741 238.514C528.174 217.174 541.882 186.412 549.213 160.678C552.868 147.849 554.91 136.369 556.037 128.103C556.6 123.972 556.933 120.65 557.126 118.371C557.128 118.35 557.13 118.329 557.132 118.308C557.11 118.306 557.089 118.304 557.068 118.302Z" fill="#FFDDCC" stroke="#FFEECC" stroke-width="7.27852"/>
<path d="M478.951 42.984C476.683 43.8016 473.393 45.0475 469.343 46.7469C461.239 50.1474 450.115 55.3546 438.057 62.571C413.874 77.0453 386.294 99.3888 371.502 131.111C356.709 162.834 357.321 198.324 361.778 226.153C364 240.028 367.161 251.897 369.766 260.291C371.067 264.486 372.228 267.806 373.059 270.069C373.089 270.15 373.12 270.23 373.149 270.308C373.228 270.28 373.309 270.253 373.39 270.223C375.658 269.406 378.948 268.161 382.997 266.461C391.102 263.061 402.226 257.854 414.283 250.637C438.089 236.389 465.186 214.515 480.137 183.577L480.839 182.096C495.632 150.374 495.02 114.884 490.563 87.0548C488.341 73.1798 485.179 61.3108 482.575 52.9169C481.273 48.7222 480.113 45.4008 479.282 43.1383C479.252 43.0568 479.221 42.9771 479.192 42.8983C479.113 42.9266 479.032 42.9545 478.951 42.984Z" fill="#FFCCCC" stroke="#FFEECC" stroke-width="7.27852"/>
<path d="M371.825 5.37207C373.627 7.1628 376.213 9.81686 379.323 13.2422C385.547 20.0966 393.849 30.0207 402.147 42.2783C418.79 66.8601 435.185 100.483 435.186 137.382C435.186 174.281 418.79 207.904 402.147 232.485C393.849 244.743 385.547 254.667 379.323 261.521C376.213 264.947 373.627 267.601 371.825 269.392C371.714 269.502 371.603 269.609 371.498 269.713C371.393 269.609 371.282 269.502 371.171 269.392C369.369 267.601 366.783 264.947 363.673 261.521C357.45 254.667 349.147 244.743 340.849 232.485C324.466 208.288 308.324 175.329 307.823 139.109L307.812 137.382C307.812 100.483 324.206 66.8601 340.849 42.2783C349.147 30.0207 357.45 20.0966 363.673 13.2422C366.783 9.8168 369.369 7.16282 371.171 5.37207C371.283 5.26098 371.392 5.15422 371.498 5.0498C371.604 5.15422 371.713 5.26097 371.825 5.37207Z" fill="#FEBBCC" stroke="#FFEECC" stroke-width="7.27852"/>
</svg>
