<svg width="749" height="789" viewBox="0 0 749 789" fill="none" xmlns="http://www.w3.org/2000/svg">
<path d="M359.496 326.47H397.788V559.241H363.863V336.883L298.365 558.905C297.917 561.368 296.685 562.6 294.67 562.6C292.878 562.6 291.535 561.144 290.639 558.233L225.141 338.226L225.141 523.372C225.141 548.676 219.655 567.933 208.682 581.145C197.934 594.133 185.282 600.627 170.727 600.627C156.172 600.627 143.856 596.372 133.779 587.863C123.926 579.354 119 568.941 119 556.625C119 544.085 122.023 535.352 128.069 530.426C133.891 525.276 139.041 522.7 143.52 522.7C148.222 522.7 152.253 523.708 155.612 525.723C158.971 527.739 160.65 529.978 160.65 532.441C160.65 534.904 160.09 536.136 158.971 536.136C157.851 536.136 156.955 535.8 156.284 535.128C155.836 534.457 155.388 533.673 154.94 532.777C153.373 530.538 149.678 529.418 143.856 529.418C138.258 529.418 133.779 531.881 130.42 536.808C127.061 541.51 125.382 547.556 125.382 554.946C125.382 567.038 129.748 576.667 138.482 583.832C147.439 590.774 157.963 594.245 170.055 594.245C182.147 594.245 193.231 588.647 203.308 577.45C213.385 566.254 218.423 551.139 218.423 532.105L218.423 332.516H191.888C181.363 332.516 173.526 334.867 168.375 339.57C163.225 344.048 160.65 349.422 160.65 355.692C160.65 361.738 162.217 366.777 165.352 370.807C168.487 374.838 172.63 376.853 177.78 376.853C183.155 376.853 187.073 375.622 189.536 373.159C192 370.695 193.903 368.344 195.247 366.105C196.59 363.642 197.934 362.41 199.277 362.41C200.621 362.41 201.293 364.09 201.293 367.449C201.293 370.807 198.717 374.39 193.567 378.197C188.641 381.78 182.819 383.571 176.101 383.571C169.383 383.571 164.009 380.996 159.978 375.846C155.947 370.695 153.932 364.314 153.932 356.7C153.932 348.863 157.179 341.809 163.673 335.539C170.391 329.045 179.908 325.798 192.224 325.798H233.033C247.468 325.798 260.174 335.317 264.231 349.169L308.441 500.125L359.496 326.47Z" fill="#FF7B9C"/>
<path d="M481.749 455.293C486.228 454.845 489.587 454.621 491.826 454.621L481.749 455.293Z" fill="#FF7B9C"/>
<path d="M397.788 559.241H363.863L355.308 565.565H406.342L397.788 559.241Z" fill="#FF7B9C"/>
<path d="M481.749 455.293C486.228 454.845 489.587 454.621 491.826 454.621L481.749 455.293Z" fill="#FF7B9C"/>
<path d="M466.744 559.577H432.82L424.265 565.901H475.299L466.744 559.577Z" fill="#FF7B9C"/>
<path d="M545.317 589.135C552.931 597.197 562.896 601.227 575.211 601.227C593.126 601.227 605.441 594.621 612.159 581.41C612.831 580.066 613.167 578.947 613.167 578.051C613.167 576.931 612.719 576.371 611.823 576.371C610.928 576.371 609.36 577.827 607.121 580.738C604.882 583.649 601.747 586.56 597.716 589.471C593.685 592.158 589.319 593.502 584.616 593.502C573.42 593.502 565.918 582.865 562.112 561.592C560.544 552.411 549.599 527.173 546.912 516.425C544.225 505.676 541.202 495.824 537.843 486.867C534.484 477.686 528.774 470.072 520.712 464.026C512.875 457.756 503.246 454.621 491.826 454.621L481.749 455.293L555.419 369.464C564.6 358.715 573.557 350.43 582.29 344.608C591.023 338.786 597.741 335.427 602.444 334.531C607.146 333.412 612.408 332.852 618.23 332.852C620.917 332.852 622.261 331.508 622.261 328.821C622.261 326.806 620.134 325.798 615.879 325.798C594.382 325.798 572.661 338.674 550.717 364.426L466.744 462.505V325.798H433.155L432.82 559.577H466.744V473.253V473.253C472.924 465.657 483.428 461.272 490.67 467.864C498.994 475.441 505.537 489.053 510.3 508.699C513.211 520.568 525.164 547.709 528.523 559.577C532.106 571.221 537.704 581.074 545.317 589.135Z" fill="#FF7B9C"/>
<path d="M466.744 325.798L432.82 325.797L424.265 321H475.299L466.744 325.798Z" fill="#FF7B9C"/>
<path d="M397.452 326.47H359.496V326.47C362.278 323.414 366.218 321.672 370.351 321.672H406.006L397.452 326.47Z" fill="#FF7B9C"/>
<circle cx="371.3" cy="440.243" r="332.294" transform="rotate(44.2915 371.3 440.243)" stroke="#FAD180" stroke-width="5.43439"/>
<circle cx="390.513" cy="440.004" r="332.973" transform="rotate(44.2915 390.513 440.004)" stroke="#FAD180" stroke-width="4.07579"/>
<circle cx="352.089" cy="440.481" r="332.973" transform="rotate(44.2915 352.089 440.481)" stroke="#FAD180" stroke-width="4.07579"/>
<path d="M315.094 148.21C367.55 192.225 371.017 274.454 371.017 274.454C371.017 274.454 289.436 285.318 236.98 241.302C184.524 197.287 181.057 115.059 181.057 115.059C181.057 115.059 262.638 104.194 315.094 148.21Z" fill="#FFDDCC"/>
<path d="M315.094 148.21C367.55 192.225 371.017 274.454 371.017 274.454C371.017 274.454 289.436 285.318 236.98 241.302C184.524 197.287 181.057 115.059 181.057 115.059C181.057 115.059 262.638 104.194 315.094 148.21Z" fill="#FFDDCC"/>
<path d="M315.094 148.21C367.55 192.225 371.017 274.454 371.017 274.454C371.017 274.454 289.436 285.318 236.98 241.302C184.524 197.287 181.057 115.059 181.057 115.059C181.057 115.059 262.638 104.194 315.094 148.21Z" stroke="#FFEECC" stroke-width="7.27852"/>
<path d="M373.858 129.573C404.32 194.9 371.047 274.889 371.047 274.889C371.047 274.889 288.385 248.961 257.923 183.635C227.46 118.308 260.733 38.3189 260.733 38.3189C260.733 38.3189 343.395 64.2462 373.858 129.573Z" fill="#FFCCCC"/>
<path d="M373.858 129.573C404.32 194.9 371.047 274.889 371.047 274.889C371.047 274.889 288.385 248.961 257.923 183.635C227.46 118.308 260.733 38.3189 260.733 38.3189C260.733 38.3189 343.395 64.2462 373.858 129.573Z" fill="#FFCCCC"/>
<path d="M373.858 129.573C404.32 194.9 371.047 274.889 371.047 274.889C371.047 274.889 288.385 248.961 257.923 183.635C227.46 118.308 260.733 38.3189 260.733 38.3189C260.733 38.3189 343.395 64.2462 373.858 129.573Z" stroke="#FFEECC" stroke-width="7.27852"/>
<path d="M426.967 148.21C374.511 192.225 371.044 274.454 371.044 274.454C371.044 274.454 452.625 285.318 505.081 241.302C557.537 197.287 561.003 115.059 561.003 115.059C561.003 115.059 479.423 104.194 426.967 148.21Z" fill="#FFDDCC"/>
<path d="M426.967 148.21C374.511 192.225 371.044 274.454 371.044 274.454C371.044 274.454 452.625 285.318 505.081 241.302C557.537 197.287 561.003 115.059 561.003 115.059C561.003 115.059 479.423 104.194 426.967 148.21Z" fill="#FFDDCC"/>
<path d="M426.967 148.21C374.511 192.225 371.044 274.454 371.044 274.454C371.044 274.454 452.625 285.318 505.081 241.302C557.537 197.287 561.003 115.059 561.003 115.059C561.003 115.059 479.423 104.194 426.967 148.21Z" stroke="#FFEECC" stroke-width="7.27852"/>
<path d="M368.203 129.573C337.74 194.9 371.013 274.889 371.013 274.889C371.013 274.889 453.675 248.961 484.138 183.635C514.6 118.308 481.327 38.3189 481.327 38.3189C481.327 38.3189 398.665 64.2462 368.203 129.573Z" fill="#FFCCCC"/>
<path d="M368.203 129.573C337.74 194.9 371.013 274.889 371.013 274.889C371.013 274.889 453.675 248.961 484.138 183.635C514.6 118.308 481.327 38.3189 481.327 38.3189C481.327 38.3189 398.665 64.2462 368.203 129.573Z" fill="#FFCCCC"/>
<path d="M368.203 129.573C337.74 194.9 371.013 274.889 371.013 274.889C371.013 274.889 453.675 248.961 484.138 183.635C514.6 118.308 481.327 38.3189 481.327 38.3189C481.327 38.3189 398.665 64.2462 368.203 129.573Z" stroke="#FFEECC" stroke-width="7.27852"/>
<path d="M438.824 137.382C438.824 213.256 371.498 274.764 371.498 274.764C371.498 274.764 304.172 213.256 304.172 137.382C304.172 61.508 371.498 0 371.498 0C371.498 0 438.824 61.508 438.824 137.382Z" fill="#FEBBCC"/>
<path d="M438.824 137.382C438.824 213.256 371.498 274.764 371.498 274.764C371.498 274.764 304.172 213.256 304.172 137.382C304.172 61.508 371.498 0 371.498 0C371.498 0 438.824 61.508 438.824 137.382Z" fill="#FEBBCC"/>
<path d="M438.824 137.382C438.824 213.256 371.498 274.764 371.498 274.764C371.498 274.764 304.172 213.256 304.172 137.382C304.172 61.508 371.498 0 371.498 0C371.498 0 438.824 61.508 438.824 137.382Z" stroke="#FFEECC" stroke-width="7.27852"/>
</svg>
